<?xml version="1.0" encoding="UTF-8"?>
<svg version="1.1" xmlns="http://www.w3.org/2000/svg" width="256" height="256">
<path d="M0 0 C2.53521836 2.23695738 5.00491519 4.52808742 7.4609375 6.8515625 C8.27304688 7.59921875 9.08515625 8.346875 9.921875 9.1171875 C36.91314926 34.83127213 49.9039234 72.21025964 51.4609375 108.8515625 C52.07868752 144.1956887 41.43253269 182.75057787 17.0703125 209.37109375 C6.18850459 219.38130054 -5.76798109 223.39337114 -20.2890625 223.12890625 C-30.26216916 222.67742102 -38.78386295 218.9818631 -46.5390625 212.8515625 C-47.22613281 212.32691406 -47.91320312 211.80226562 -48.62109375 211.26171875 C-60.41425458 201.67836626 -66.45506873 188.07198389 -68.3203125 173.16796875 C-69.40823793 156.67424211 -65.17201593 142.38669211 -54.6953125 129.6015625 C-47.35930176 121.66423941 -37.22929523 116.34561717 -26.5390625 114.8515625 C-24.52203781 114.77462103 -22.50283985 114.74350179 -20.484375 114.75390625 C-19.37578125 114.75712891 -18.2671875 114.76035156 -17.125 114.76367188 C-15.98289063 114.77205078 -14.84078125 114.78042969 -13.6640625 114.7890625 C-11.91609375 114.79583008 -11.91609375 114.79583008 -10.1328125 114.80273438 C-7.26817605 114.81447469 -4.40364617 114.8308968 -1.5390625 114.8515625 C-2.8717542 131.22233821 -10.60054875 145.64859699 -22.5390625 156.8515625 C-29.07408526 161.96419826 -35.91578795 164.99844828 -43.7890625 167.515625 C-47.12080107 169.13416845 -48.0971534 170.47352104 -49.5390625 173.8515625 C-49.31658415 177.58249628 -49.31658415 177.58249628 -48.5390625 180.8515625 C-39.24723821 182.95148734 -30.32498089 178.32484247 -22.33203125 173.734375 C-4.83314082 161.93792019 5.78832091 144.24334052 10.4609375 123.8515625 C11.32540134 118.53916657 11.74293699 113.28035912 12.0234375 107.9140625 C12.08821289 106.74520508 12.08821289 106.74520508 12.15429688 105.55273438 C12.25921827 103.65249133 12.360462 101.75204581 12.4609375 99.8515625 C7.00193652 99.92117005 1.54364909 100.00947504 -3.91479492 100.11401367 C-5.76595033 100.14696382 -7.617199 100.17508543 -9.46850586 100.19799805 C-28.92511442 100.44521638 -45.51498219 102.46237169 -60.1875 116.60546875 C-62.86959197 119.16726756 -65.67130035 121.50032812 -68.5390625 123.8515625 C-68.57773437 122.14613281 -68.57773437 122.14613281 -68.6171875 120.40625 C-69.25616113 100.70527792 -74.47463891 82.71825359 -88.71875 68.4765625 C-105.1816094 53.15379032 -123.91113111 51.63661956 -145.3515625 51.2265625 C-147.02671056 51.1882734 -148.70184125 51.14921585 -150.37695312 51.109375 C-154.43084423 51.01459894 -158.48482658 50.93014906 -162.5390625 50.8515625 C-160.75528864 77.30724919 -155.52606756 99.7404226 -135.7265625 118.6015625 C-126.33518668 126.74362686 -113.54171772 133.21979722 -100.9765625 134.1015625 C-97.65719388 134.16120997 -97.65719388 134.16120997 -95.8359375 132.62890625 C-94.15832059 130.32976259 -94.22919514 128.97851183 -94.3515625 126.1640625 C-94.39216797 124.95169922 -94.39216797 124.95169922 -94.43359375 123.71484375 C-94.46839844 123.09996094 -94.50320312 122.48507813 -94.5390625 121.8515625 C-95.26609375 121.69300781 -95.993125 121.53445312 -96.7421875 121.37109375 C-114.99442912 117.13563768 -129.50867026 109.19638415 -139.66748047 93.10888672 C-144.43223749 85.20277306 -147.12717274 76.96770111 -148.5390625 67.8515625 C-148.2090625 67.1915625 -147.8790625 66.5315625 -147.5390625 65.8515625 C-127.48913017 65.29190936 -111.20147052 65.9635472 -95.8984375 80.33984375 C-86.04301037 90.83163124 -81.48641833 104.17124582 -81.36206055 118.42919922 C-81.34280769 120.36314041 -81.34280769 120.36314041 -81.32316589 122.33615112 C-81.31499116 123.73451343 -81.30754885 125.13288018 -81.30078125 126.53125 C-81.29670572 127.24495884 -81.2926302 127.95866768 -81.28843117 128.69400406 C-81.26762201 132.47959342 -81.25330406 136.26514721 -81.24389648 140.05078125 C-81.23290593 143.91451451 -81.19857801 147.77766011 -81.15872478 151.64118767 C-81.13225998 154.65112187 -81.12417813 157.66092306 -81.12061501 160.67096329 C-81.11581727 162.09239752 -81.10440487 163.5138287 -81.08557701 164.93514633 C-80.85539684 183.47955228 -85.10894855 199.8310905 -98.12109375 213.5625 C-109.37915079 224.22036983 -121.43599094 228.32473403 -136.74609375 228.06640625 C-150.7034762 227.27582331 -161.77240809 219.47994703 -170.90771484 209.33105469 C-186.07511037 191.77664178 -196.02265522 170.27459267 -201.5390625 147.8515625 C-201.86003906 146.57152344 -202.18101562 145.29148438 -202.51171875 143.97265625 C-206.92631552 123.88550271 -206.88162314 98.70975961 -201.5390625 78.8515625 C-201.34038574 78.08312012 -201.14170898 77.31467773 -200.93701172 76.52294922 C-194.35723631 51.41137191 -183.17210415 29.91985172 -165.5390625 10.8515625 C-164.77851563 10.02011719 -164.01796875 9.18867187 -163.234375 8.33203125 C-119.90192466 -36.98450564 -47.62634794 -40.29921749 0 0 Z " fill="#39054A" transform="translate(204.5390625,28.1484375)"/>
</svg>
